<?xml version="1.0" encoding="utf-8"?>
<!-- Generator: Adobe Illustrator 14.0.0, SVG Export Plug-In  -->
<!DOCTYPE svg PUBLIC "-//W3C//DTD SVG 1.1//EN" "http://www.w3.org/Graphics/SVG/1.1/DTD/svg11.dtd" [
	<!ENTITY ns_flows "http://ns.adobe.com/Flows/1.0/">
]>
<svg version="1.1"
	 xmlns="http://www.w3.org/2000/svg" xmlns:xlink="http://www.w3.org/1999/xlink" xmlns:a="http://ns.adobe.com/AdobeSVGViewerExtensions/3.0/"
	 x="0px" y="0px" width="320px" height="132px" viewBox="-6.89 -4.27 320 132" enable-background="new -6.89 -4.27 320 132"
	 xml:space="preserve">
<defs>
</defs>
<circle display="none" fill="#2BACE2" cx="29.791" cy="61.622" r="29.791"/>
<circle display="none" fill="#FFFFFF" cx="29.791" cy="61.622" r="18.354"/>
<circle display="none" fill="#2BACE2" cx="29.791" cy="61.622" r="11.257"/>
<rect x="12.605" y="58.844" display="none" fill="#FFFFFF" width="34.37" height="5.556"/>
<rect x="26.255" y="52.893" display="none" fill="#2BACE2" width="7.071" height="17.458"/>
<rect x="10.185" y="64.4" display="none" fill="#2BACE2" width="17.459" height="5.556"/>
<rect x="31.468" y="53.289" display="none" fill="#2BACE2" width="17.459" height="5.556"/>
<rect x="62.739" y="48.167" display="none" fill="none" width="243.481" height="34.562"/>
<text transform="matrix(1 0 0 1 62.7393 75.5112)" display="none"><tspan x="0" y="0" display="inline" font-family="'Comfortaa-Light'" font-size="35">Smarter</tspan><tspan x="138.427" y="0" display="inline" font-family="'Comfortaa-Bold'" font-size="35">Giving</tspan></text>
<ellipse fill="#2BACE2" cx="153.11" cy="35.897" rx="34.317" ry="35.897"/>
<ellipse fill="#FFFFFF" cx="153.11" cy="35.897" rx="21.143" ry="22.116"/>
<ellipse fill="#2BACE2" cx="153.11" cy="35.897" rx="12.969" ry="13.564"/>
<rect x="133.313" y="32.55" fill="#FFFFFF" width="39.592" height="6.694"/>
<rect x="149.037" y="25.378" fill="#2BACE2" width="8.145" height="21.037"/>
<rect x="130.525" y="39.244" fill="#2BACE2" width="20.112" height="6.694"/>
<rect x="155.042" y="25.855" fill="#2BACE2" width="20.112" height="6.694"/>
<rect x="12.869" y="81.814" fill="none" width="280.48" height="41.646"/>
<text transform="matrix(0.956 0 0 1 12.8687 114.7632)"><tspan x="0" y="0" font-family="'Comfortaa-Light'" font-size="42.1735">Smarter</tspan><tspan x="166.8" y="0" font-family="'Comfortaa-Bold'" font-size="42.1735">Giving</tspan></text>
</svg>
